<svg xmlns="http://www.w3.org/2000/svg" width="760" height="943" viewBox="0 0 760 943" font-family="-apple-system, BlinkMacSystemFont, 'Segoe UI', Roboto, Helvetica, Arial, sans-serif">
<rect width="760" height="943" fill="#f8fafc"/>
<g transform="translate(0 24)"><g class="header-card"><rect x="76" y="0" width="660" height="183" rx="12" fill="#ffffff" stroke="#e2e8f0" stroke-width="1"/><text x="98" y="48" font-size="22" fill="#0f172a" font-weight="700">Choose an implementation approach</text><text x="98" y="77" font-size="13.5" fill="#475569">Draft several independent approaches to the same problem, then run a</text><text x="98" y="96" font-size="13.5" fill="#475569">single-elimination bracket of pairwise judges until one approach is left</text><text x="98" y="115" font-size="13.5" fill="#475569">standing.</text><text x="98" y="144" font-size="12.5" fill="#64748b" font-style="italic">When to use — When the design space is wide and quality is easier to judge</text><text x="98" y="161" font-size="12.5" fill="#64748b" font-style="italic">head-to-head than to score in the abstract — pairwise comparison beats absolute sco…</text></g></g>
<g transform="translate(0 223)"><g class="graph-band"><title>Generate several approaches from different priorities — simplest, most scalable, least risky — each a self-contained design brief.</title><rect x="76" y="0" width="660" height="223" rx="10" fill="#ffffff" stroke="#e2e8f0" stroke-width="1"/><circle cx="107" cy="29" r="13" fill="#334155"/><text x="107" y="33" font-size="12.5" fill="#ffffff" font-weight="700" text-anchor="middle">1</text><text x="134" y="32" font-size="16" fill="#0f172a" font-weight="700">Draft the contenders</text><rect x="657" y="17" width="61" height="20" rx="10" fill="#dcfce7" stroke="#22c55e" stroke-width="1"/><text x="687.5" y="31" font-size="11.5" fill="#14532d" font-weight="600" text-anchor="middle">sonnet</text><text x="94" y="54" font-size="11.5" fill="#64748b">Generate several approaches from different priorities — simplest, most scalable, least risky…</text><path d="M 103 141 L 136 90" fill="none" stroke="#475569" stroke-width="1.2"/><g class="arrowhead"><polygon points="136,90 135.14,97.78 129.26,93.98" fill="#475569"/></g><path d="M 103 141 L 136 124" fill="none" stroke="#475569" stroke-width="1.2"/><g class="arrowhead"><polygon points="136,124 131.38,130.32 128.17,124.09" fill="#475569"/></g><path d="M 103 141 L 136 158" fill="none" stroke="#475569" stroke-width="1.2"/><g class="arrowhead"><polygon points="136,158 128.17,157.91 131.38,151.68" fill="#475569"/></g><path d="M 103 141 L 136 192" fill="none" stroke="#475569" stroke-width="1.2"/><g class="arrowhead"><polygon points="136,192 129.26,188.02 135.14,184.22" fill="#475569"/></g><path d="M 159 90 L 303 90" fill="none" stroke="#475569" stroke-width="1.2"/><path d="M 159 124 L 303 124" fill="none" stroke="#475569" stroke-width="1.2"/><path d="M 159 158 L 303 158" fill="none" stroke="#475569" stroke-width="1.2"/><path d="M 159 192 L 303 192" fill="none" stroke="#475569" stroke-width="1.2"/><path d="M 309 141 L 342 141" fill="none" stroke="#475569" stroke-width="1.2"/><g class="arrowhead"><polygon points="342,141 335,144.5 335,137.5" fill="#475569"/></g><circle class="hub" cx="98.5" cy="141" r="4.5" fill="#475569"/><g class="agent-node"><title>draft:${p}</title><circle cx="148" cy="90" r="11" fill="#f1f5f9" stroke="#94a3b8" stroke-width="1.25"/><text x="165" y="84" font-size="10" fill="#334155">draft:simplest</text><circle cx="148" cy="124" r="11" fill="#f1f5f9" stroke="#94a3b8" stroke-width="1.25"/><text x="165" y="118" font-size="10" fill="#334155">draft:most scala…</text><circle cx="148" cy="158" r="11" fill="#f1f5f9" stroke="#94a3b8" stroke-width="1.25"/><text x="165" y="152" font-size="10" fill="#334155">draft:least risky</text><circle cx="148" cy="192" r="11" fill="#f1f5f9" stroke="#94a3b8" stroke-width="1.25"/><text x="165" y="186" font-size="10" fill="#334155">draft:fastest to…</text></g><rect class="barrier" x="303" y="71" width="6" height="140" rx="2" fill="#e8694a"/><circle class="hub" cx="347.5" cy="141" r="4.5" fill="#475569"/></g></g>
<g transform="translate(0 462)"><g class="graph-band"><title>Every match pits two approaches on the same rubric; the judge picks the stronger and names the single deciding factor.</title><rect x="76" y="0" width="660" height="163" rx="10" fill="#ffffff" stroke="#e2e8f0" stroke-width="1"/><circle cx="107" cy="29" r="13" fill="#334155"/><text x="107" y="33" font-size="12.5" fill="#ffffff" font-weight="700" text-anchor="middle">2</text><text x="134" y="32" font-size="16" fill="#0f172a" font-weight="700">Judge pairwise</text><rect x="593" y="17" width="125" height="20" rx="10" fill="#ede9fe" stroke="#8b5cf6" stroke-width="1"/><text x="655.5" y="31" font-size="11.5" fill="#3b0764" font-weight="600" text-anchor="middle">claude-opus-4-8</text><text x="94" y="54" font-size="11.5" fill="#64748b">Every match pits two approaches on the same rubric; the judge picks the stronger and names t…</text><path d="M 147.63 104 L 212.26 104" fill="none" stroke="#475569" stroke-width="1.2"/><g class="arrowhead"><polygon points="212.26,104 205.26,107.5 205.26,100.5" fill="#475569"/></g><path d="M 241.26 104 L 384.26 104" fill="none" stroke="#475569" stroke-width="1.2"/><g class="arrowhead"><polygon points="384.26,104 377.26,107.5 377.26,100.5" fill="#475569"/></g><text x="245.26" y="116" font-size="9.5" fill="#94a3b8">no</text><g class="agent-node"><circle cx="136.63" cy="104" r="11" fill="#f1f5f9" stroke="#94a3b8" stroke-width="1.25"/><text x="136.63" y="127" font-size="10.5" fill="#334155" text-anchor="middle">match:${i /</text><text x="136.63" y="139" font-size="10.5" fill="#334155" text-anchor="middle">2}</text></g><g class="decision"><polygon points="227.26,90 241.26,104 227.26,118 213.26,104" fill="#ffffff" stroke="#e8694a" stroke-width="1.4"/><text x="247.26" y="85" font-size="10.5" fill="#334155">i &lt;</text><text x="247.26" y="97" font-size="10.5" fill="#334155">bracket.length</text></g><g class="decision"><polygon points="399.26,90 413.26,104 399.26,118 385.26,104" fill="#ffffff" stroke="#e8694a" stroke-width="1.4"/><text x="419.26" y="85" font-size="10.5" fill="#334155">bracket.length &gt;</text><text x="419.26" y="97" font-size="10.5" fill="#334155">1</text></g></g></g>
<g transform="translate(0 670)"><g class="phase-card"><rect x="76" y="0" width="660" height="84" rx="10" fill="#ffffff" stroke="#e2e8f0" stroke-width="1"/><circle cx="107" cy="29" r="13" fill="#334155"/><text x="107" y="33" font-size="12.5" fill="#ffffff" font-weight="700" text-anchor="middle">3</text><text x="134" y="32" font-size="16" fill="#0f172a" font-weight="700">Advance the bracket</text><text x="134" y="50" font-size="13" fill="#475569">Winners re-pair each round and losers drop out, repeating until one approach</text><text x="134" y="68" font-size="13" fill="#475569">survives the final match.</text></g></g>
<g transform="translate(0 770)"><g class="graph-band"><title>Document the winning approach and graft in the best ideas from the contenders it beat on the way to the final.</title><rect x="76" y="0" width="660" height="149" rx="10" fill="#ffffff" stroke="#e2e8f0" stroke-width="1"/><circle cx="107" cy="29" r="13" fill="#334155"/><text x="107" y="33" font-size="12.5" fill="#ffffff" font-weight="700" text-anchor="middle">4</text><text x="134" y="32" font-size="16" fill="#0f172a" font-weight="700">Write up the winner</text><rect x="664" y="17" width="54" height="20" rx="10" fill="#dbeafe" stroke="#3b82f6" stroke-width="1"/><text x="691" y="31" font-size="11.5" fill="#1e3a5f" font-weight="600" text-anchor="middle">haiku</text><text x="94" y="54" font-size="11.5" fill="#64748b">Document the winning approach and graft in the best ideas from the contenders it beat on the…</text><g class="agent-node"><title>Document the winning approach:…</title><circle cx="138" cy="90" r="11" fill="#f1f5f9" stroke="#94a3b8" stroke-width="1.25"/><text x="138" y="113" font-size="10.5" fill="#334155" text-anchor="middle">Document the</text><text x="138" y="125" font-size="10.5" fill="#334155" text-anchor="middle">winning appro…</text></g></g></g>
<g class="xband-overlay"><g class="xband-edge"><path d="M 395.26 580 L 395.26 626.5 A 10 10 0 0 1 385.26 636.5 L 66 636.5 A 10 10 0 0 0 56 646.5 L 56 828 A 10 10 0 0 0 66 838 L 133 838 A 5 5 0 0 1 138 843 L 138 848" fill="none" stroke="#475569" stroke-width="1.3"/><g class="arrowhead"><polygon points="138,848 134.5,841 141.5,841" fill="#475569"/></g><text x="390.26" y="591" font-size="9.5" fill="#94a3b8" text-anchor="end">no</text></g><g class="loop-path"><path d="M 227.26 580 L 227.26 637.5 A 10 10 0 0 1 217.26 647.5 L 57 647.5 A 10 10 0 0 1 47 637.5 L 47 540 A 10 10 0 0 1 57 530 L 122.63 530 A 10 10 0 0 1 132.63 540 L 132.63 554" fill="none" stroke="#e8694a" stroke-width="1.3"/><g class="arrowhead"><polygon points="132.63,554 129.13,547 136.13,547" fill="#e8694a"/></g><text x="137.13" y="643.5" font-size="10" fill="#e8694a" font-style="italic" text-anchor="middle">yes</text></g><g class="loop-path"><path d="M 403.26 580 L 403.26 648.5 A 10 10 0 0 1 393.26 658.5 L 48 658.5 A 10 10 0 0 1 38 648.5 L 38 533 A 10 10 0 0 1 48 523 L 130.63 523 A 10 10 0 0 1 140.63 533 L 140.63 554" fill="none" stroke="#e8694a" stroke-width="1.3"/><g class="arrowhead"><polygon points="140.63,554 137.13,547 144.13,547" fill="#e8694a"/></g><text x="220.63" y="654.5" font-size="10" fill="#e8694a" font-style="italic" text-anchor="middle">yes</text></g></g>
</svg>
