<svg xmlns="http://www.w3.org/2000/svg" width="760" height="839" viewBox="0 0 760 839" font-family="-apple-system, BlinkMacSystemFont, 'Segoe UI', Roboto, Helvetica, Arial, sans-serif">
<rect width="760" height="839" fill="#f8fafc"/>
<g transform="translate(0 24)"><g class="header-card"><rect x="24" y="0" width="712" height="164" rx="12" fill="#ffffff" stroke="#e2e8f0" stroke-width="1"/><text x="46" y="48" font-size="22" fill="#0f172a" font-weight="700">Review a change with two lineages</text><text x="46" y="77" font-size="13.5" fill="#475569">Review the same diff with two independent reviewers — one Claude, one external — and</text><text x="46" y="96" font-size="13.5" fill="#475569">merge only what both lineages agree is real, killing single-model blind spots.</text><text x="46" y="125" font-size="12.5" fill="#64748b" font-style="italic">When to use — Before merging a risky change, when one model&#39;s blind spots are the failure</text><text x="46" y="142" font-size="12.5" fill="#64748b" font-style="italic">mode and a second, differently-trained reviewer is cheap insurance.</text></g></g>
<g transform="translate(0 204)"><g class="graph-band"><title>Compute the cumulative diff against the base branch and split it into focus targets the reviewers can attack independently.</title><rect x="24" y="0" width="712" height="149" rx="10" fill="#ffffff" stroke="#e2e8f0" stroke-width="1"/><circle cx="55" cy="29" r="13" fill="#334155"/><text x="55" y="33" font-size="12.5" fill="#ffffff" font-weight="700" text-anchor="middle">1</text><text x="82" y="32" font-size="16" fill="#0f172a" font-weight="700">Scope the diff</text><rect x="664" y="17" width="54" height="20" rx="10" fill="#dbeafe" stroke="#3b82f6" stroke-width="1"/><text x="691" y="31" font-size="11.5" fill="#1e3a5f" font-weight="600" text-anchor="middle">haiku</text><text x="42" y="54" font-size="11.5" fill="#64748b">Compute the cumulative diff against the base branch and split it into focus targets the reviewers ca…</text><g class="agent-node"><title>Compute the diff vs main and split it i…</title><circle cx="86" cy="90" r="11" fill="#f1f5f9" stroke="#94a3b8" stroke-width="1.25"/><text x="86" y="113" font-size="10.5" fill="#334155" text-anchor="middle">Compute the</text><text x="86" y="125" font-size="10.5" fill="#334155" text-anchor="middle">diff vs main…</text></g></g></g>
<g transform="translate(0 369)"><g class="graph-band"><title>A Claude reviewer reads the diff for correctness, security, and convention drift, reporting each finding with file:line and a confidence.</title><rect x="24" y="0" width="712" height="121" rx="10" fill="#ffffff" stroke="#e2e8f0" stroke-width="1"/><circle cx="55" cy="29" r="13" fill="#334155"/><text x="55" y="33" font-size="12.5" fill="#ffffff" font-weight="700" text-anchor="middle">2</text><text x="82" y="32" font-size="16" fill="#0f172a" font-weight="700">Claude review</text><rect x="593" y="17" width="125" height="20" rx="10" fill="#ede9fe" stroke="#8b5cf6" stroke-width="1"/><text x="655.5" y="31" font-size="11.5" fill="#3b0764" font-weight="600" text-anchor="middle">claude-opus-4-8</text><text x="42" y="54" font-size="11.5" fill="#64748b">A Claude reviewer reads the diff for correctness, security, and convention drift, reporting each fin…</text><g class="agent-node"><circle cx="53" cy="90" r="11" fill="#f1f5f9" stroke="#94a3b8" stroke-width="1.25"/><text x="70" y="83" font-size="10.5" fill="#334155">review:claude</text></g></g></g>
<g transform="translate(0 513)"><g class="graph-band"><title>A second, non-Claude reviewer audits the same diff from scratch — its different training surfaces issues the first lineage anchors past.</title><rect x="24" y="0" width="712" height="137" rx="10" fill="#ffffff" stroke="#e2e8f0" stroke-width="1"/><circle cx="55" cy="29" r="13" fill="#334155"/><text x="55" y="33" font-size="12.5" fill="#ffffff" font-weight="700" text-anchor="middle">3</text><text x="82" y="32" font-size="16" fill="#0f172a" font-weight="700">External review</text><rect x="621" y="17" width="97" height="20" rx="10" fill="#f1f5f9" stroke="#94a3b8" stroke-width="1"/><text x="669.5" y="31" font-size="11.5" fill="#334155" font-weight="600" text-anchor="middle">gpt-5-codex</text><text x="42" y="54" font-size="11.5" fill="#64748b">A second, non-Claude reviewer audits the same diff from scratch — its different training surfaces is…</text><path d="M 97 90 L 164 90" fill="none" stroke="#475569" stroke-width="1.2"/><g class="agent-node"><title>review:external</title><circle cx="86" cy="90" r="11" fill="#f1f5f9" stroke="#94a3b8" stroke-width="1.25"/><text x="86" y="113" font-size="10.5" fill="#334155" text-anchor="middle">review:extern…</text></g><rect class="barrier" x="164" y="71" width="6" height="38" rx="2" fill="#e8694a"/></g></g>
<g transform="translate(0 666)"><g class="graph-band"><title>Keep findings both lineages raise, flag the disagreements for a human, and drop what neither can defend on a second pass.</title><rect x="24" y="0" width="712" height="149" rx="10" fill="#ffffff" stroke="#e2e8f0" stroke-width="1"/><circle cx="55" cy="29" r="13" fill="#334155"/><text x="55" y="33" font-size="12.5" fill="#ffffff" font-weight="700" text-anchor="middle">4</text><text x="82" y="32" font-size="16" fill="#0f172a" font-weight="700">Merge the verdicts</text><rect x="657" y="17" width="61" height="20" rx="10" fill="#dcfce7" stroke="#22c55e" stroke-width="1"/><text x="687.5" y="31" font-size="11.5" fill="#14532d" font-weight="600" text-anchor="middle">sonnet</text><text x="42" y="54" font-size="11.5" fill="#64748b">Keep findings both lineages raise, flag the disagreements for a human, and drop what neither can def…</text><g class="agent-node"><title>Keep what both reviews agree on, flag t…</title><circle cx="86" cy="90" r="11" fill="#f1f5f9" stroke="#94a3b8" stroke-width="1.25"/><text x="86" y="113" font-size="10.5" fill="#334155" text-anchor="middle">Keep what both</text><text x="86" y="125" font-size="10.5" fill="#334155" text-anchor="middle">reviews agree…</text></g></g></g>
<g class="xband-overlay"><g class="xband-edge"><path d="M 53 470 L 53 491.5 A 10 10 0 0 0 63 501.5 L 157 501.5 A 10 10 0 0 1 167 511.5 L 167 583" fill="none" stroke="#475569" stroke-width="1.3"/><g class="arrowhead"><polygon points="167,583 163.5,576 170.5,576" fill="#475569"/></g></g></g>
</svg>
