<svg xmlns="http://www.w3.org/2000/svg" width="1122" height="793" viewBox="0 0 1122 793" font-family="-apple-system, BlinkMacSystemFont, 'Segoe UI', Roboto, Helvetica, Arial, sans-serif">
<rect width="1122" height="793" fill="#f8fafc"/>
<g transform="translate(0 24)"><g class="header-card"><rect x="24" y="0" width="1074" height="164" rx="12" fill="#ffffff" stroke="#e2e8f0" stroke-width="1"/><text x="46" y="48" font-size="22" fill="#0f172a" font-weight="700">Review a change with two lineages</text><text x="46" y="77" font-size="13.5" fill="#475569">Review the same diff with two independent reviewers — one Claude, one external — and merge only what both lineages agree is real,</text><text x="46" y="96" font-size="13.5" fill="#475569">killing single-model blind spots.</text><text x="46" y="125" font-size="12.5" fill="#64748b" font-style="italic">When to use — Before merging a risky change, when one model&#39;s blind spots are the failure mode and a second, differently-trained reviewer is</text><text x="46" y="142" font-size="12.5" fill="#64748b" font-style="italic">cheap insurance.</text></g></g>
<g transform="translate(0 204)"><rect class="swimlane" x="24" y="12" width="1074" height="128" rx="10" fill="#dbeafe" fill-opacity="0.55" stroke="#e8edf3" stroke-width="1"/><rect class="swimlane" x="24" y="140" width="1074" height="132" rx="10" fill="#ede9fe" fill-opacity="0.55" stroke="#e8edf3" stroke-width="1"/><rect class="swimlane" x="24" y="272" width="1074" height="153" rx="10" fill="#f1f5f9" fill-opacity="0.55" stroke="#e8edf3" stroke-width="1"/><rect class="swimlane" x="24" y="425" width="1074" height="128" rx="10" fill="#dcfce7" fill-opacity="0.55" stroke="#e8edf3" stroke-width="1"/><g transform="translate(0 12)"><g class="lane-label"><circle cx="51" cy="27" r="11" fill="#334155"/><text x="51" y="30.7" font-size="11.5" fill="#ffffff" font-weight="700" text-anchor="middle">1</text><text x="74" y="31" font-size="15" fill="#0f172a" font-weight="700">Scope the diff</text><rect x="74" y="40" width="51" height="19" rx="9" fill="#dbeafe" stroke="#3b82f6" stroke-width="1"/><text x="99.5" y="53" font-size="11" fill="#1e3a5f" font-weight="600" text-anchor="middle">haiku</text><text x="74" y="76" font-size="12.5" fill="#475569">Compute the cumulative diff</text><text x="74" y="93" font-size="12.5" fill="#475569">against the base branch and</text><text x="74" y="110" font-size="12.5" fill="#475569">split it into focus targets t…</text></g></g><g transform="translate(0 140)"><g class="lane-label"><circle cx="51" cy="27" r="11" fill="#334155"/><text x="51" y="30.7" font-size="11.5" fill="#ffffff" font-weight="700" text-anchor="middle">2</text><text x="74" y="31" font-size="15" fill="#0f172a" font-weight="700">Claude review</text><rect x="74" y="40" width="119" height="19" rx="9" fill="#ede9fe" stroke="#8b5cf6" stroke-width="1"/><text x="133.5" y="53" font-size="11" fill="#3b0764" font-weight="600" text-anchor="middle">claude-opus-4-8</text><text x="74" y="76" font-size="12.5" fill="#475569">A Claude reviewer reads the</text><text x="74" y="93" font-size="12.5" fill="#475569">diff for correctness,</text><text x="74" y="110" font-size="12.5" fill="#475569">security, and convention drif…</text></g></g><g transform="translate(0 272)"><g class="lane-label"><circle cx="51" cy="27" r="11" fill="#334155"/><text x="51" y="30.7" font-size="11.5" fill="#ffffff" font-weight="700" text-anchor="middle">3</text><text x="74" y="31" font-size="15" fill="#0f172a" font-weight="700">External review</text><rect x="74" y="40" width="92" height="19" rx="9" fill="#f1f5f9" stroke="#94a3b8" stroke-width="1"/><text x="120" y="53" font-size="11" fill="#334155" font-weight="600" text-anchor="middle">gpt-5-codex</text><text x="74" y="76" font-size="12.5" fill="#475569">A second, non-Claude reviewer</text><text x="74" y="93" font-size="12.5" fill="#475569">audits the same diff from</text><text x="74" y="110" font-size="12.5" fill="#475569">scratch — its different train…</text></g></g><g transform="translate(0 425)"><g class="lane-label"><circle cx="51" cy="27" r="11" fill="#334155"/><text x="51" y="30.7" font-size="11.5" fill="#ffffff" font-weight="700" text-anchor="middle">4</text><text x="74" y="31" font-size="15" fill="#0f172a" font-weight="700">Merge the verdicts</text><rect x="74" y="40" width="57" height="19" rx="9" fill="#dcfce7" stroke="#22c55e" stroke-width="1"/><text x="102.5" y="53" font-size="11" fill="#14532d" font-weight="600" text-anchor="middle">sonnet</text><text x="74" y="76" font-size="12.5" fill="#475569">Keep findings both lineages</text><text x="74" y="93" font-size="12.5" fill="#475569">raise, flag the disagreements</text><text x="74" y="110" font-size="12.5" fill="#475569">for a human, and drop what ne…</text></g></g><g class="topology" transform="translate(338 0)"><g class="edge"><path d="M 304 187 L 239 203" fill="none" stroke="#64748b" stroke-width="1.1"/><polygon points="239,203 244.96,197.93 246.63,204.73" fill="#64748b"/></g><g class="edge"><path d="M 304 187 L 369 314" fill="none" stroke="#64748b" stroke-width="1.1"/><polygon points="369,314 362.7,309.36 368.93,306.17" fill="#64748b"/></g><g class="edge"><path d="M 239 229 L 304 381" fill="none" stroke="#64748b" stroke-width="1.1"/><polygon points="304,381 298.03,375.94 304.47,373.19" fill="#64748b"/></g><g class="edge"><path d="M 369 340 L 304 381" fill="none" stroke="#64748b" stroke-width="1.1"/><polygon points="304,381 308.05,374.31 311.79,380.23" fill="#64748b"/></g><g class="edge"><path d="M 304 388 L 304 404" fill="none" stroke="#64748b" stroke-width="1.3"/><polygon points="304,404 300.5,397 307.5,397" fill="#64748b"/></g><g class="edge"><path d="M 304 76 L 304 180" fill="none" stroke="#64748b" stroke-width="1.3"/><polygon points="304,180 300.5,173 307.5,173" fill="#64748b"/></g><g class="edge"><path d="M 304 411 L 304 465" fill="none" stroke="#64748b" stroke-width="1.3"/><polygon points="304,465 300.5,458 307.5,458" fill="#64748b"/></g><g class="agent-node"><title>Compute the diff vs main and split it into focus targets.</title><circle cx="304" cy="63" r="13" fill="#f1f5f9" stroke="#94a3b8" stroke-width="1.25"/><text x="325" y="67" font-size="12.5" fill="#334155">Compute the diff vs main and split it i…</text></g><circle class="hub" cx="304" cy="183.5" r="3.5" fill="#94a3b8"/><g class="agent-node"><title>Review these targets for correctness, security, conventions:\n${JSON.stringify(…</title><circle cx="239" cy="216" r="13" fill="#f1f5f9" stroke="#94a3b8" stroke-width="1.25"/><text x="239" y="241" font-size="11" fill="#334155" text-anchor="middle">review:claude</text></g><g class="agent-node"><title>Independently audit the same targets:\n${JSON.stringify(targets.targets)}</title><circle cx="369" cy="327" r="13" fill="#f1f5f9" stroke="#94a3b8" stroke-width="1.25"/><text x="369" y="352" font-size="11" fill="#334155" text-anchor="middle">review:external</text></g><rect class="barrier" x="287" y="381" width="34" height="7" rx="3.5" fill="#e8694a"/><circle class="hub" cx="304" cy="407.5" r="3.5" fill="#94a3b8"/><g class="agent-node"><title>Keep what both reviews agree on, flag the disagreements:\n${claudeFindings}\n--…</title><circle cx="304" cy="478" r="13" fill="#f1f5f9" stroke="#94a3b8" stroke-width="1.25"/><text x="325" y="482" font-size="12.5" fill="#334155">Keep what both reviews agree on, flag t…</text></g></g></g>
</svg>
