<svg xmlns="http://www.w3.org/2000/svg" width="760" height="687" viewBox="0 0 760 687" font-family="-apple-system, BlinkMacSystemFont, 'Segoe UI', Roboto, Helvetica, Arial, sans-serif">
<rect width="760" height="687" fill="#f8fafc"/>
<g transform="translate(0 24)"><g class="header-card"><rect x="24" y="0" width="712" height="164" rx="12" fill="#ffffff" stroke="#e2e8f0" stroke-width="1"/><text x="46" y="48" font-size="22" fill="#0f172a" font-weight="700">Review a change with two lineages</text><text x="46" y="77" font-size="13.5" fill="#475569">Review the same diff with two independent reviewers — one Claude, one external — and</text><text x="46" y="96" font-size="13.5" fill="#475569">merge only what both lineages agree is real, killing single-model blind spots.</text><text x="46" y="125" font-size="12.5" fill="#64748b" font-style="italic">When to use — Before merging a risky change, when one model&#39;s blind spots are the failure</text><text x="46" y="142" font-size="12.5" fill="#64748b" font-style="italic">mode and a second, differently-trained reviewer is cheap insurance.</text></g></g>
<g class="topology" transform="translate(0 204)"><rect class="swimlane" x="24" y="12" width="712" height="76" rx="10" fill="#dbeafe" fill-opacity="0.55" stroke="#e8edf3" stroke-width="1"/><rect class="swimlane" x="24" y="92" width="712" height="120" rx="10" fill="#ede9fe" fill-opacity="0.55" stroke="#e8edf3" stroke-width="1"/><rect class="swimlane" x="24" y="220" width="712" height="147" rx="10" fill="#f1f5f9" fill-opacity="0.55" stroke="#e8edf3" stroke-width="1"/><rect class="swimlane" x="24" y="371" width="712" height="76" rx="10" fill="#dcfce7" fill-opacity="0.55" stroke="#e8edf3" stroke-width="1"/><g class="edge"><path d="M 304 137 L 239 153" fill="none" stroke="#64748b" stroke-width="1.1"/><polygon points="239,153 244.96,147.93 246.63,154.73" fill="#64748b"/></g><g class="edge"><path d="M 304 137 L 369 258" fill="none" stroke="#64748b" stroke-width="1.1"/><polygon points="369,258 362.6,253.49 368.77,250.18" fill="#64748b"/></g><g class="edge"><path d="M 239 179 L 304 325" fill="none" stroke="#64748b" stroke-width="1.1"/><polygon points="304,325 297.96,320.03 304.35,317.18" fill="#64748b"/></g><g class="edge"><path d="M 369 284 L 304 325" fill="none" stroke="#64748b" stroke-width="1.1"/><polygon points="304,325 308.05,318.31 311.79,324.23" fill="#64748b"/></g><g class="edge"><path d="M 304 332 L 304 348" fill="none" stroke="#64748b" stroke-width="1.3"/><polygon points="304,348 300.5,341 307.5,341" fill="#64748b"/></g><g class="edge"><path d="M 304 76 L 304 130" fill="none" stroke="#64748b" stroke-width="1.3"/><polygon points="304,130 300.5,123 307.5,123" fill="#64748b"/></g><g class="edge"><path d="M 304 355 L 304 409" fill="none" stroke="#64748b" stroke-width="1.3"/><polygon points="304,409 300.5,402 307.5,402" fill="#64748b"/></g><g class="agent-node"><circle cx="304" cy="63" r="13" fill="#f1f5f9" stroke="#94a3b8" stroke-width="1.25"/><text x="325" y="67" font-size="12.5" fill="#334155">Compute the diff vs main and split it i…</text></g><circle class="hub" cx="304" cy="133.5" r="3.5" fill="#94a3b8"/><g class="agent-node"><circle cx="239" cy="166" r="13" fill="#f1f5f9" stroke="#94a3b8" stroke-width="1.25"/><text x="239" y="191" font-size="11" fill="#334155" text-anchor="middle">review:claude</text></g><g class="agent-node"><circle cx="369" cy="271" r="13" fill="#f1f5f9" stroke="#94a3b8" stroke-width="1.25"/><text x="369" y="296" font-size="11" fill="#334155" text-anchor="middle">review:external</text></g><rect class="barrier" x="287" y="325" width="34" height="7" rx="3.5" fill="#e8694a"/><circle class="hub" cx="304" cy="351.5" r="3.5" fill="#94a3b8"/><g class="agent-node"><circle cx="304" cy="422" r="13" fill="#f1f5f9" stroke="#94a3b8" stroke-width="1.25"/><text x="325" y="426" font-size="12.5" fill="#334155">Keep what both reviews agree on, flag t…</text></g><g class="lane-chrome"><circle cx="49" cy="37" r="11" fill="#334155"/><text x="49" y="40.7" font-size="11.5" fill="#ffffff" font-weight="700" text-anchor="middle">1</text><text x="72" y="41" font-size="15" fill="#0f172a" font-weight="700">Scope the diff</text><rect x="668" y="27" width="54" height="20" rx="10" fill="#dbeafe" stroke="#3b82f6" stroke-width="1"/><text x="695" y="41" font-size="11.5" fill="#1e3a5f" font-weight="600" text-anchor="middle">haiku</text></g><g class="lane-chrome"><circle cx="49" cy="117" r="11" fill="#334155"/><text x="49" y="120.7" font-size="11.5" fill="#ffffff" font-weight="700" text-anchor="middle">2</text><text x="72" y="121" font-size="15" fill="#0f172a" font-weight="700">Claude review</text><rect x="597" y="107" width="125" height="20" rx="10" fill="#ede9fe" stroke="#8b5cf6" stroke-width="1"/><text x="659.5" y="121" font-size="11.5" fill="#3b0764" font-weight="600" text-anchor="middle">claude-opus-4-8</text></g><g class="lane-chrome"><circle cx="49" cy="245" r="11" fill="#334155"/><text x="49" y="248.7" font-size="11.5" fill="#ffffff" font-weight="700" text-anchor="middle">3</text><text x="72" y="249" font-size="15" fill="#0f172a" font-weight="700">External review</text><rect x="625" y="235" width="97" height="20" rx="10" fill="#f1f5f9" stroke="#94a3b8" stroke-width="1"/><text x="673.5" y="249" font-size="11.5" fill="#334155" font-weight="600" text-anchor="middle">gpt-5-codex</text></g><g class="lane-chrome"><circle cx="49" cy="396" r="11" fill="#334155"/><text x="49" y="399.7" font-size="11.5" fill="#ffffff" font-weight="700" text-anchor="middle">4</text><text x="72" y="400" font-size="15" fill="#0f172a" font-weight="700">Merge the verdicts</text><rect x="661" y="386" width="61" height="20" rx="10" fill="#dcfce7" stroke="#22c55e" stroke-width="1"/><text x="691.5" y="400" font-size="11.5" fill="#14532d" font-weight="600" text-anchor="middle">sonnet</text></g></g>
</svg>
