<svg xmlns="http://www.w3.org/2000/svg" width="760" height="828.5" viewBox="0 0 760 828.5" font-family="-apple-system, BlinkMacSystemFont, 'Segoe UI', Roboto, Helvetica, Arial, sans-serif">
<rect width="760" height="828.5" fill="#f8fafc"/>
<g transform="translate(0 24)"><g class="header-card"><rect x="24" y="0" width="712" height="118" rx="12" fill="#ffffff" stroke="#e2e8f0" stroke-width="1"/><text x="46" y="48" font-size="22" fill="#0f172a" font-weight="700">Name a new feature</text><text x="46" y="77" font-size="13.5" fill="#475569">Several generators each pitch a batch of candidate names; one filter scores them for</text><text x="46" y="96" font-size="13.5" fill="#475569">clarity &amp; memorability, dedupes near-collisions, and keeps the best.</text></g></g>
<g transform="translate(0 158)"><g class="phase-card"><rect x="24" y="0" width="712" height="84" rx="10" fill="#ffffff" stroke="#e2e8f0" stroke-width="1"/><circle cx="55" cy="29" r="13" fill="#334155"/><text x="55" y="33" font-size="12.5" fill="#ffffff" font-weight="700" text-anchor="middle">1</text><text x="82" y="32" font-size="16" fill="#0f172a" font-weight="700">Generate candidates</text><rect x="657" y="17" width="61" height="20" rx="10" fill="#dcfce7" stroke="#22c55e" stroke-width="1"/><text x="687.5" y="31" font-size="11.5" fill="#14532d" font-weight="600" text-anchor="middle">sonnet</text><text x="82" y="50" font-size="13" fill="#475569">Run generators with different framings — literal, playful, metaphorical — so the</text><text x="82" y="68" font-size="13" fill="#475569">pool is genuinely diverse, not variations on one idea.</text></g></g>
<g transform="translate(0 258)"><g class="phase-card"><rect x="24" y="0" width="712" height="84" rx="10" fill="#ffffff" stroke="#e2e8f0" stroke-width="1"/><circle cx="55" cy="29" r="13" fill="#334155"/><text x="55" y="33" font-size="12.5" fill="#ffffff" font-weight="700" text-anchor="middle">2</text><text x="82" y="32" font-size="16" fill="#0f172a" font-weight="700">Filter by rubric and dedupe</text><rect x="593" y="17" width="125" height="20" rx="10" fill="#ede9fe" stroke="#8b5cf6" stroke-width="1"/><text x="655.5" y="31" font-size="11.5" fill="#3b0764" font-weight="600" text-anchor="middle">claude-opus-4-8</text><text x="82" y="50" font-size="13" fill="#475569">Score every name on clarity, memorability, and availability, collapse</text><text x="82" y="68" font-size="13" fill="#475569">near-duplicates, and discard everything below the bar.</text></g></g>
<g transform="translate(0 358)"><g class="phase-card"><rect x="24" y="0" width="712" height="84" rx="10" fill="#ffffff" stroke="#e2e8f0" stroke-width="1"/><circle cx="55" cy="29" r="13" fill="#334155"/><text x="55" y="33" font-size="12.5" fill="#ffffff" font-weight="700" text-anchor="middle">3</text><text x="82" y="32" font-size="16" fill="#0f172a" font-weight="700">Shortlist the best</text><rect x="664" y="17" width="54" height="20" rx="10" fill="#dbeafe" stroke="#3b82f6" stroke-width="1"/><text x="691" y="31" font-size="11.5" fill="#1e3a5f" font-weight="600" text-anchor="middle">haiku</text><text x="82" y="50" font-size="13" fill="#475569">Return the top handful with a one-line rationale each, plus the strongest candidate</text><text x="82" y="68" font-size="13" fill="#475569">that was cut and why it lost.</text></g></g>
<g class="topology" transform="translate(0 458)"><rect class="swimlane" x="24" y="12" width="712" height="162.5" rx="10" fill="#dcfce7" fill-opacity="0.55" stroke="#e8edf3" stroke-width="1"/><rect class="swimlane" x="24" y="178.5" width="712" height="76" rx="10" fill="#ede9fe" fill-opacity="0.55" stroke="#e8edf3" stroke-width="1"/><rect class="swimlane" x="24" y="258.5" width="712" height="76" rx="10" fill="#dbeafe" fill-opacity="0.55" stroke="#e8edf3" stroke-width="1"/><g class="edge"><path d="M 304 57 L 187.92 73" fill="none" stroke="#64748b" stroke-width="1.1"/><polygon points="187.92,73 194.38,68.58 195.33,75.51" fill="#64748b"/></g><g class="edge"><path d="M 304 57 L 304 73" fill="none" stroke="#64748b" stroke-width="1.1"/><polygon points="304,73 300.5,66 307.5,66" fill="#64748b"/></g><g class="edge"><path d="M 304 57 L 420.08 73" fill="none" stroke="#64748b" stroke-width="1.1"/><polygon points="420.08,73 412.67,75.51 413.62,68.58" fill="#64748b"/></g><g class="edge"><path d="M 187.92 99 L 187.92 132.5" fill="none" stroke="#64748b" stroke-width="1.1"/><polygon points="187.92,132.5 184.42,125.5 191.42,125.5" fill="#64748b"/></g><g class="edge"><path d="M 304 99 L 304 132.5" fill="none" stroke="#64748b" stroke-width="1.1"/><polygon points="304,132.5 300.5,125.5 307.5,125.5" fill="#64748b"/></g><g class="edge"><path d="M 420.08 99 L 420.08 132.5" fill="none" stroke="#64748b" stroke-width="1.1"/><polygon points="420.08,132.5 416.58,125.5 423.58,125.5" fill="#64748b"/></g><g class="edge"><path d="M 304 139.5 L 304 155.5" fill="none" stroke="#64748b" stroke-width="1.3"/><polygon points="304,155.5 300.5,148.5 307.5,148.5" fill="#64748b"/></g><g class="edge"><path d="M 304 162.5 L 304 216.5" fill="none" stroke="#64748b" stroke-width="1.3"/><polygon points="304,216.5 300.5,209.5 307.5,209.5" fill="#64748b"/></g><g class="edge"><path d="M 304 242.5 L 304 296.5" fill="none" stroke="#64748b" stroke-width="1.3"/><polygon points="304,296.5 300.5,289.5 307.5,289.5" fill="#64748b"/></g><circle class="hub" cx="304" cy="53.5" r="3.5" fill="#94a3b8"/><g class="agent-node"><circle cx="187.92" cy="86" r="13" fill="#f1f5f9" stroke="#94a3b8" stroke-width="1.25"/><text x="187.92" y="111" font-size="11" fill="#334155" text-anchor="middle">gen:literal</text></g><g class="agent-node"><circle cx="304" cy="86" r="13" fill="#f1f5f9" stroke="#94a3b8" stroke-width="1.25"/><text x="304" y="111" font-size="11" fill="#334155" text-anchor="middle">gen:playful</text></g><g class="agent-node"><circle cx="420.08" cy="86" r="13" fill="#f1f5f9" stroke="#94a3b8" stroke-width="1.25"/><text x="420.08" y="111" font-size="11" fill="#334155" text-anchor="middle">gen:metaphorical</text></g><rect class="barrier" x="174.92" y="132.5" width="258.16" height="7" rx="3.5" fill="#e8694a"/><circle class="hub" cx="304" cy="159" r="3.5" fill="#94a3b8"/><g class="agent-node"><title>Score, dedupe, and filter these names by clarity &amp; memorability:\n${JSON.string…</title><circle cx="304" cy="229.5" r="13" fill="#f1f5f9" stroke="#94a3b8" stroke-width="1.25"/><text x="325" y="233.5" font-size="12.5" fill="#334155">Score, dedupe, and filter these names b…</text></g><g class="agent-node"><title>Pick the top 5 with a rationale from:\n${JSON.stringify(kept.kept)}</title><circle cx="304" cy="309.5" r="13" fill="#f1f5f9" stroke="#94a3b8" stroke-width="1.25"/><text x="325" y="313.5" font-size="12.5" fill="#334155">Pick the top 5 with a rationale from:…</text></g><g class="lane-chrome"><circle cx="49" cy="37" r="11" fill="#334155"/><text x="49" y="40.7" font-size="11.5" fill="#ffffff" font-weight="700" text-anchor="middle">1</text><text x="72" y="41" font-size="15" fill="#0f172a" font-weight="700">Generate candidates</text><rect x="661" y="27" width="61" height="20" rx="10" fill="#dcfce7" stroke="#22c55e" stroke-width="1"/><text x="691.5" y="41" font-size="11.5" fill="#14532d" font-weight="600" text-anchor="middle">sonnet</text></g><g class="lane-chrome"><circle cx="49" cy="203.5" r="11" fill="#334155"/><text x="49" y="207.2" font-size="11.5" fill="#ffffff" font-weight="700" text-anchor="middle">2</text><text x="72" y="207.5" font-size="15" fill="#0f172a" font-weight="700">Filter by rubric and dedupe</text><rect x="597" y="193.5" width="125" height="20" rx="10" fill="#ede9fe" stroke="#8b5cf6" stroke-width="1"/><text x="659.5" y="207.5" font-size="11.5" fill="#3b0764" font-weight="600" text-anchor="middle">claude-opus-4-8</text></g><g class="lane-chrome"><circle cx="49" cy="283.5" r="11" fill="#334155"/><text x="49" y="287.2" font-size="11.5" fill="#ffffff" font-weight="700" text-anchor="middle">3</text><text x="72" y="287.5" font-size="15" fill="#0f172a" font-weight="700">Shortlist the best</text><rect x="668" y="273.5" width="54" height="20" rx="10" fill="#dbeafe" stroke="#3b82f6" stroke-width="1"/><text x="695" y="287.5" font-size="11.5" fill="#1e3a5f" font-weight="600" text-anchor="middle">haiku</text></g></g>
</svg>
