<svg xmlns="http://www.w3.org/2000/svg" width="1122" height="759" viewBox="0 0 1122 759" font-family="-apple-system, BlinkMacSystemFont, 'Segoe UI', Roboto, Helvetica, Arial, sans-serif">
<rect width="1122" height="759" fill="#f8fafc"/>
<g transform="translate(0 24)"><g class="header-card"><rect x="24" y="0" width="1074" height="145" rx="12" fill="#ffffff" stroke="#e2e8f0" stroke-width="1"/><text x="46" y="48" font-size="22" fill="#0f172a" font-weight="700">Review a pull request</text><text x="46" y="77" font-size="13.5" fill="#475569">Review a branch&#39;s diff across independent dimensions, adversarially verify each finding, then synthesize a ranked report.</text><text x="46" y="106" font-size="12.5" fill="#64748b" font-style="italic">When to use — Before merging a sizable or unfamiliar PR, when a single reviewer pass risks missing correctness, security, or performance</text><text x="46" y="123" font-size="12.5" fill="#64748b" font-style="italic">regressions.</text></g></g>
<g transform="translate(0 185)"><rect class="swimlane" x="24" y="12" width="1074" height="128" rx="10" fill="#dbeafe" fill-opacity="0.55" stroke="#e8edf3" stroke-width="1"/><rect class="swimlane" x="24" y="140" width="1074" height="135" rx="10" fill="#dcfce7" fill-opacity="0.55" stroke="#e8edf3" stroke-width="1"/><rect class="swimlane" x="24" y="275" width="1074" height="135" rx="10" fill="#ede9fe" fill-opacity="0.55" stroke="#e8edf3" stroke-width="1"/><rect class="swimlane" x="24" y="410" width="1074" height="128" rx="10" fill="#dcfce7" fill-opacity="0.55" stroke="#e8edf3" stroke-width="1"/><g transform="translate(0 12)"><g class="lane-label"><circle cx="51" cy="27" r="11" fill="#334155"/><text x="51" y="30.7" font-size="11.5" fill="#ffffff" font-weight="700" text-anchor="middle">1</text><text x="74" y="31" font-size="15" fill="#0f172a" font-weight="700">Map the diff</text><rect x="74" y="40" width="51" height="19" rx="9" fill="#dbeafe" stroke="#3b82f6" stroke-width="1"/><text x="99.5" y="53" font-size="11" fill="#1e3a5f" font-weight="600" text-anchor="middle">haiku</text><text x="74" y="76" font-size="12.5" fill="#475569">List changed files against the</text><text x="74" y="93" font-size="12.5" fill="#475569">base branch and group them by</text><text x="74" y="110" font-size="12.5" fill="#475569">subsystem so each reviewer ge…</text></g></g><g transform="translate(0 140)"><g class="lane-label"><circle cx="51" cy="27" r="11" fill="#334155"/><text x="51" y="30.7" font-size="11.5" fill="#ffffff" font-weight="700" text-anchor="middle">2</text><text x="74" y="31" font-size="15" fill="#0f172a" font-weight="700">Review by dimension</text><rect x="74" y="40" width="57" height="19" rx="9" fill="#dcfce7" stroke="#22c55e" stroke-width="1"/><text x="102.5" y="53" font-size="11" fill="#14532d" font-weight="600" text-anchor="middle">sonnet</text><text x="74" y="76" font-size="12.5" fill="#475569">One agent per dimension —</text><text x="74" y="93" font-size="12.5" fill="#475569">correctness, security,</text><text x="74" y="110" font-size="12.5" fill="#475569">performance — reviews its sli…</text></g></g><g transform="translate(0 275)"><g class="lane-label"><circle cx="51" cy="27" r="11" fill="#334155"/><text x="51" y="30.7" font-size="11.5" fill="#ffffff" font-weight="700" text-anchor="middle">3</text><text x="74" y="31" font-size="15" fill="#0f172a" font-weight="700">Adversarially verify</text><rect x="74" y="40" width="119" height="19" rx="9" fill="#ede9fe" stroke="#8b5cf6" stroke-width="1"/><text x="133.5" y="53" font-size="11" fill="#3b0764" font-weight="600" text-anchor="middle">claude-opus-4-8</text><text x="74" y="76" font-size="12.5" fill="#475569">Spawn a panel of skeptics per</text><text x="74" y="93" font-size="12.5" fill="#475569">finding, each prompted to</text><text x="74" y="110" font-size="12.5" fill="#475569">refute it; drop anything the…</text></g></g><g transform="translate(0 410)"><g class="lane-label"><circle cx="51" cy="27" r="11" fill="#334155"/><text x="51" y="30.7" font-size="11.5" fill="#ffffff" font-weight="700" text-anchor="middle">4</text><text x="74" y="31" font-size="15" fill="#0f172a" font-weight="700">Synthesize the report</text><rect x="74" y="40" width="57" height="19" rx="9" fill="#dcfce7" stroke="#22c55e" stroke-width="1"/><text x="102.5" y="53" font-size="11" fill="#14532d" font-weight="600" text-anchor="middle">sonnet</text><text x="74" y="76" font-size="12.5" fill="#475569">Dedupe the survivors, rank</text><text x="74" y="93" font-size="12.5" fill="#475569">them by severity, and write</text><text x="74" y="110" font-size="12.5" fill="#475569">the review with reproducible…</text></g></g><g class="topology" transform="translate(338 0)"><g class="edge"><path d="M 175.16 229 L 175.16 320" fill="none" stroke="#64748b" stroke-width="1.3"/><polygon points="175.16,320 171.66,313 178.66,313" fill="#64748b"/></g><g class="edge"><path d="M 304 187 L 175.16 203" fill="none" stroke="#64748b" stroke-width="1.1"/><polygon points="175.16,203 181.68,198.66 182.54,205.61" fill="#64748b"/></g><g class="edge"><path d="M 304 229 L 304 320" fill="none" stroke="#64748b" stroke-width="1.3"/><polygon points="304,320 300.5,313 307.5,313" fill="#64748b"/></g><g class="edge"><path d="M 304 187 L 304 203" fill="none" stroke="#64748b" stroke-width="1.1"/><polygon points="304,203 300.5,196 307.5,196" fill="#64748b"/></g><g class="edge"><path d="M 432.84 229 L 432.84 320" fill="none" stroke="#64748b" stroke-width="1.3"/><polygon points="432.84,320 429.34,313 436.34,313" fill="#64748b"/></g><g class="edge"><path d="M 304 187 L 432.84 203" fill="none" stroke="#64748b" stroke-width="1.1"/><polygon points="432.84,203 425.46,205.61 426.32,198.66" fill="#64748b"/></g><g class="edge"><path d="M 175.16 346 L 304 383" fill="none" stroke="#64748b" stroke-width="1.1"/><polygon points="304,383 296.31,384.43 298.24,377.7" fill="#64748b"/></g><g class="edge"><path d="M 304 346 L 304 383" fill="none" stroke="#64748b" stroke-width="1.1"/><polygon points="304,383 300.5,376 307.5,376" fill="#64748b"/></g><g class="edge"><path d="M 432.84 346 L 304 383" fill="none" stroke="#64748b" stroke-width="1.1"/><polygon points="304,383 309.76,377.7 311.69,384.43" fill="#64748b"/></g><g class="edge"><path d="M 304 76 L 304 180" fill="none" stroke="#64748b" stroke-width="1.3"/><polygon points="304,180 300.5,173 307.5,173" fill="#64748b"/></g><g class="edge"><path d="M 304 390 L 304 450" fill="none" stroke="#64748b" stroke-width="1.3"/><polygon points="304,450 300.5,443 307.5,443" fill="#64748b"/></g><g class="agent-node"><title>List changed files vs main, grouped by subsystem.</title><circle cx="304" cy="63" r="13" fill="#f1f5f9" stroke="#94a3b8" stroke-width="1.25"/><text x="325" y="67" font-size="12.5" fill="#334155">List changed files vs main, grouped by…</text></g><circle class="hub" cx="304" cy="183.5" r="3.5" fill="#94a3b8"/><g class="agent-node"><circle cx="175.16" cy="216" r="13" fill="#f1f5f9" stroke="#94a3b8" stroke-width="1.25"/><text x="175.16" y="241" font-size="11" fill="#334155" text-anchor="middle">review:correctness</text></g><g class="agent-node"><circle cx="177.16" cy="335" r="13" fill="#f1f5f9" stroke="#94a3b8" stroke-width="1"/><circle cx="175.16" cy="333" r="13" fill="#f1f5f9" stroke="#94a3b8" stroke-width="1.25"/><text x="175.16" y="358" font-size="11" fill="#334155" text-anchor="middle">verify:${f.title}</text><text x="189.16" y="322" font-size="11" font-weight="700" fill="#e8694a">×N</text></g><g class="agent-node"><circle cx="304" cy="216" r="13" fill="#f1f5f9" stroke="#94a3b8" stroke-width="1.25"/><text x="304" y="241" font-size="11" fill="#334155" text-anchor="middle">review:security</text></g><g class="agent-node"><circle cx="306" cy="335" r="13" fill="#f1f5f9" stroke="#94a3b8" stroke-width="1"/><circle cx="304" cy="333" r="13" fill="#f1f5f9" stroke="#94a3b8" stroke-width="1.25"/><text x="304" y="358" font-size="11" fill="#334155" text-anchor="middle">verify:${f.title}</text><text x="318" y="322" font-size="11" font-weight="700" fill="#e8694a">×N</text></g><g class="agent-node"><circle cx="432.84" cy="216" r="13" fill="#f1f5f9" stroke="#94a3b8" stroke-width="1.25"/><text x="432.84" y="241" font-size="11" fill="#334155" text-anchor="middle">review:performance</text></g><g class="agent-node"><circle cx="434.84" cy="335" r="13" fill="#f1f5f9" stroke="#94a3b8" stroke-width="1"/><circle cx="432.84" cy="333" r="13" fill="#f1f5f9" stroke="#94a3b8" stroke-width="1.25"/><text x="432.84" y="358" font-size="11" fill="#334155" text-anchor="middle">verify:${f.title}</text><text x="446.84" y="322" font-size="11" font-weight="700" fill="#e8694a">×N</text></g><circle class="hub" cx="304" cy="386.5" r="3.5" fill="#94a3b8"/><g class="agent-node"><title>Write a ranked review of: ${JSON.stringify(confirmed)}</title><circle cx="304" cy="463" r="13" fill="#f1f5f9" stroke="#94a3b8" stroke-width="1.25"/><text x="325" y="467" font-size="12.5" fill="#334155">Write a ranked review of:…</text></g></g></g>
</svg>
