<svg xmlns="http://www.w3.org/2000/svg" width="1122" height="788" viewBox="0 0 1122 788" font-family="-apple-system, BlinkMacSystemFont, 'Segoe UI', Roboto, Helvetica, Arial, sans-serif">
<rect width="1122" height="788" fill="#f8fafc"/>
<g transform="translate(0 24)"><g class="header-card"><rect x="24" y="0" width="1074" height="164" rx="12" fill="#ffffff" stroke="#e2e8f0" stroke-width="1"/><text x="46" y="48" font-size="22" fill="#0f172a" font-weight="700">Summarize an unfamiliar codebase</text><text x="46" y="77" font-size="13.5" fill="#475569">Fan out one reader per top-level module, each summarizing its slice in isolation, then synthesize the slices into a single</text><text x="46" y="96" font-size="13.5" fill="#475569">architecture overview.</text><text x="46" y="125" font-size="12.5" fill="#64748b" font-style="italic">When to use — On first contact with a large repo no single context can hold, when each module still fits comfortably on its own for a focused</text><text x="46" y="142" font-size="12.5" fill="#64748b" font-style="italic">reader.</text></g></g>
<g transform="translate(0 204)"><rect x="24" y="12" width="1074" height="536" rx="12" fill="#ffffff" stroke="#e2e8f0" stroke-width="1"/><g class="swimlane"></g><g class="swimlane"><line x1="24" y1="190" x2="1098" y2="190" stroke="#e2e8f0" stroke-width="1"/></g><g class="swimlane"><line x1="24" y1="370" x2="1098" y2="370" stroke="#e2e8f0" stroke-width="1"/></g><g transform="translate(0 12)"><g class="lane-label"><circle cx="57" cy="29" r="11" fill="#334155"/><text x="57" y="32.7" font-size="11.5" fill="#ffffff" font-weight="700" text-anchor="middle">1</text><text x="80" y="34" font-size="15" fill="#0f172a" font-weight="700">List the modules</text><text x="80" y="54" font-size="12.5" fill="#475569">Walk the top-level</text><text x="80" y="71" font-size="12.5" fill="#475569">directories and package</text><text x="80" y="88" font-size="12.5" fill="#475569">manifests to build the</text><text x="80" y="105" font-size="12.5" fill="#475569">work-list — one reader per</text><text x="80" y="122" font-size="12.5" fill="#475569">module, nothing read in depth</text><text x="80" y="139" font-size="12.5" fill="#475569">yet.</text><circle cx="84" cy="154" r="4" fill="#dbeafe" stroke="#3b82f6" stroke-width="1"/><text x="95" y="158" font-size="11.5" fill="#64748b">model: haiku</text></g></g><g transform="translate(0 190)"><g class="lane-label"><circle cx="57" cy="29" r="11" fill="#334155"/><text x="57" y="32.7" font-size="11.5" fill="#ffffff" font-weight="700" text-anchor="middle">2</text><text x="80" y="34" font-size="15" fill="#0f172a" font-weight="700">Read every module in pa…</text><text x="80" y="54" font-size="12.5" fill="#475569">Each reader summarizes its</text><text x="80" y="71" font-size="12.5" fill="#475569">module&#39;s purpose, public</text><text x="80" y="88" font-size="12.5" fill="#475569">surface, and key</text><text x="80" y="105" font-size="12.5" fill="#475569">dependencies, blind to the</text><text x="80" y="122" font-size="12.5" fill="#475569">others so they all run at</text><text x="80" y="139" font-size="12.5" fill="#475569">once.</text><circle cx="84" cy="154" r="4" fill="#dcfce7" stroke="#22c55e" stroke-width="1"/><text x="95" y="158" font-size="11.5" fill="#64748b">model: sonnet</text></g></g><g transform="translate(0 370)"><g class="lane-label"><circle cx="57" cy="29" r="11" fill="#334155"/><text x="57" y="32.7" font-size="11.5" fill="#ffffff" font-weight="700" text-anchor="middle">3</text><text x="80" y="34" font-size="15" fill="#0f172a" font-weight="700">Synthesize the overview</text><text x="80" y="54" font-size="12.5" fill="#475569">Merge the per-module</text><text x="80" y="71" font-size="12.5" fill="#475569">summaries into one</text><text x="80" y="88" font-size="12.5" fill="#475569">architecture doc: a</text><text x="80" y="105" font-size="12.5" fill="#475569">dependency sketch, the real</text><text x="80" y="122" font-size="12.5" fill="#475569">entry points, and where a</text><text x="80" y="139" font-size="12.5" fill="#475569">newcomer should start.</text><circle cx="84" cy="154" r="4" fill="#ede9fe" stroke="#8b5cf6" stroke-width="1"/><text x="95" y="158" font-size="11.5" fill="#64748b">model: claude-opus-4-8</text></g></g><g class="topology" transform="translate(338 0)"><g class="edge"><path d="M 304 76 L 304 230" fill="none" stroke="#64748b" stroke-width="1.3"/><polygon points="304,230 300.5,223 307.5,223" fill="#64748b"/></g><g class="edge"><path d="M 304 256 L 304 410" fill="none" stroke="#64748b" stroke-width="1.3"/><polygon points="304,410 300.5,403 307.5,403" fill="#64748b"/></g><g class="agent-node"><title>List top-level modules with a one-line guess at each one&#39;s job.</title><circle cx="304" cy="63" r="13" fill="#f1f5f9" stroke="#94a3b8" stroke-width="1.25"/></g><g class="agent-node"><circle cx="306" cy="245" r="13" fill="#f1f5f9" stroke="#94a3b8" stroke-width="1"/><circle cx="304" cy="243" r="13" fill="#f1f5f9" stroke="#94a3b8" stroke-width="1.25"/><text x="325" y="247" font-size="12.5" fill="#334155">read each modules.modules</text><text x="318" y="232" font-size="11" font-weight="700" fill="#e8694a">×N</text></g><g class="agent-node"><title>Write one architecture overview from these module summaries:\n${JSON.stringify(…</title><circle cx="304" cy="423" r="13" fill="#f1f5f9" stroke="#94a3b8" stroke-width="1.25"/></g></g></g>
</svg>
