<svg xmlns="http://www.w3.org/2000/svg" width="760" height="488" viewBox="0 0 760 488" font-family="-apple-system, BlinkMacSystemFont, 'Segoe UI', Roboto, Helvetica, Arial, sans-serif">
<rect width="760" height="488" fill="#f8fafc"/>
<g transform="translate(0 24)"><g class="header-card"><rect x="24" y="0" width="712" height="164" rx="12" fill="#ffffff" stroke="#e2e8f0" stroke-width="1"/><text x="46" y="48" font-size="22" fill="#0f172a" font-weight="700">Summarize an unfamiliar codebase</text><text x="46" y="77" font-size="13.5" fill="#475569">Fan out one reader per top-level module, each summarizing its slice in isolation,</text><text x="46" y="96" font-size="13.5" fill="#475569">then synthesize the slices into a single architecture overview.</text><text x="46" y="125" font-size="12.5" fill="#64748b" font-style="italic">When to use — On first contact with a large repo no single context can hold, when each</text><text x="46" y="142" font-size="12.5" fill="#64748b" font-style="italic">module still fits comfortably on its own for a focused reader.</text></g></g>
<g class="topology" transform="translate(0 204)"><rect class="swimlane" x="24" y="12" width="712" height="76" rx="10" fill="#dbeafe" fill-opacity="0.55" stroke="#e8edf3" stroke-width="1"/><rect class="swimlane" x="24" y="92" width="712" height="76" rx="10" fill="#dcfce7" fill-opacity="0.55" stroke="#e8edf3" stroke-width="1"/><rect class="swimlane" x="24" y="172" width="712" height="76" rx="10" fill="#ede9fe" fill-opacity="0.55" stroke="#e8edf3" stroke-width="1"/><g class="edge"><path d="M 304 76 L 304 130" fill="none" stroke="#64748b" stroke-width="1.3"/><polygon points="304,130 300.5,123 307.5,123" fill="#64748b"/></g><g class="edge"><path d="M 304 156 L 304 210" fill="none" stroke="#64748b" stroke-width="1.3"/><polygon points="304,210 300.5,203 307.5,203" fill="#64748b"/></g><g class="agent-node"><circle cx="304" cy="63" r="13" fill="#f1f5f9" stroke="#94a3b8" stroke-width="1.25"/><text x="325" y="67" font-size="12.5" fill="#334155">List top-level modules with a one-line…</text></g><g class="agent-node"><circle cx="306" cy="145" r="13" fill="#f1f5f9" stroke="#94a3b8" stroke-width="1"/><circle cx="304" cy="143" r="13" fill="#f1f5f9" stroke="#94a3b8" stroke-width="1.25"/><text x="325" y="147" font-size="12.5" fill="#334155">read:${m}</text><text x="318" y="132" font-size="11" font-weight="700" fill="#e8694a">×N</text></g><g class="agent-node"><circle cx="304" cy="223" r="13" fill="#f1f5f9" stroke="#94a3b8" stroke-width="1.25"/><text x="325" y="227" font-size="12.5" fill="#334155">Write one architecture overview from th…</text></g><g class="lane-chrome"><circle cx="49" cy="37" r="11" fill="#334155"/><text x="49" y="40.7" font-size="11.5" fill="#ffffff" font-weight="700" text-anchor="middle">1</text><text x="72" y="41" font-size="15" fill="#0f172a" font-weight="700">List the modules</text><rect x="668" y="27" width="54" height="20" rx="10" fill="#dbeafe" stroke="#3b82f6" stroke-width="1"/><text x="695" y="41" font-size="11.5" fill="#1e3a5f" font-weight="600" text-anchor="middle">haiku</text></g><g class="lane-chrome"><circle cx="49" cy="117" r="11" fill="#334155"/><text x="49" y="120.7" font-size="11.5" fill="#ffffff" font-weight="700" text-anchor="middle">2</text><text x="72" y="121" font-size="15" fill="#0f172a" font-weight="700">Read every module in parallel</text><rect x="661" y="107" width="61" height="20" rx="10" fill="#dcfce7" stroke="#22c55e" stroke-width="1"/><text x="691.5" y="121" font-size="11.5" fill="#14532d" font-weight="600" text-anchor="middle">sonnet</text></g><g class="lane-chrome"><circle cx="49" cy="197" r="11" fill="#334155"/><text x="49" y="200.7" font-size="11.5" fill="#ffffff" font-weight="700" text-anchor="middle">3</text><text x="72" y="201" font-size="15" fill="#0f172a" font-weight="700">Synthesize the overview</text><rect x="597" y="187" width="125" height="20" rx="10" fill="#ede9fe" stroke="#8b5cf6" stroke-width="1"/><text x="659.5" y="201" font-size="11.5" fill="#3b0764" font-weight="600" text-anchor="middle">claude-opus-4-8</text></g></g>
</svg>
