<svg xmlns="http://www.w3.org/2000/svg" width="1122" height="638" viewBox="0 0 1122 638" font-family="-apple-system, BlinkMacSystemFont, 'Segoe UI', Roboto, Helvetica, Arial, sans-serif">
<rect width="1122" height="638" fill="#f8fafc"/>
<g transform="translate(0 24)"><g class="header-card"><rect x="24" y="0" width="1074" height="164" rx="12" fill="#ffffff" stroke="#e2e8f0" stroke-width="1"/><text x="46" y="48" font-size="22" fill="#0f172a" font-weight="700">Summarize an unfamiliar codebase</text><text x="46" y="77" font-size="13.5" fill="#475569">Fan out one reader per top-level module, each summarizing its slice in isolation, then synthesize the slices into a single</text><text x="46" y="96" font-size="13.5" fill="#475569">architecture overview.</text><text x="46" y="125" font-size="12.5" fill="#64748b" font-style="italic">When to use — On first contact with a large repo no single context can hold, when each module still fits comfortably on its own for a focused</text><text x="46" y="142" font-size="12.5" fill="#64748b" font-style="italic">reader.</text></g></g>
<g transform="translate(0 204)"><rect class="swimlane" x="24" y="12" width="1074" height="128" rx="10" fill="#dbeafe" fill-opacity="0.55" stroke="#e8edf3" stroke-width="1"/><rect class="swimlane" x="24" y="140" width="1074" height="130" rx="10" fill="#dcfce7" fill-opacity="0.55" stroke="#e8edf3" stroke-width="1"/><rect class="swimlane" x="24" y="270" width="1074" height="128" rx="10" fill="#ede9fe" fill-opacity="0.55" stroke="#e8edf3" stroke-width="1"/><g transform="translate(0 12)"><g class="lane-label"><circle cx="51" cy="27" r="11" fill="#334155"/><text x="51" y="30.7" font-size="11.5" fill="#ffffff" font-weight="700" text-anchor="middle">1</text><text x="74" y="31" font-size="15" fill="#0f172a" font-weight="700">List the modules</text><rect x="74" y="40" width="51" height="19" rx="9" fill="#dbeafe" stroke="#3b82f6" stroke-width="1"/><text x="99.5" y="53" font-size="11" fill="#1e3a5f" font-weight="600" text-anchor="middle">haiku</text><text x="74" y="76" font-size="12.5" fill="#475569">Walk the top-level directories</text><text x="74" y="93" font-size="12.5" fill="#475569">and package manifests to build</text><text x="74" y="110" font-size="12.5" fill="#475569">the work-list — one reader pe…</text></g></g><g transform="translate(0 140)"><g class="lane-label"><circle cx="51" cy="27" r="11" fill="#334155"/><text x="51" y="30.7" font-size="11.5" fill="#ffffff" font-weight="700" text-anchor="middle">2</text><text x="74" y="31" font-size="15" fill="#0f172a" font-weight="700">Read every module in par…</text><rect x="74" y="40" width="57" height="19" rx="9" fill="#dcfce7" stroke="#22c55e" stroke-width="1"/><text x="102.5" y="53" font-size="11" fill="#14532d" font-weight="600" text-anchor="middle">sonnet</text><text x="74" y="76" font-size="12.5" fill="#475569">Each reader summarizes its</text><text x="74" y="93" font-size="12.5" fill="#475569">module&#39;s purpose, public</text><text x="74" y="110" font-size="12.5" fill="#475569">surface, and key dependencies…</text></g></g><g transform="translate(0 270)"><g class="lane-label"><circle cx="51" cy="27" r="11" fill="#334155"/><text x="51" y="30.7" font-size="11.5" fill="#ffffff" font-weight="700" text-anchor="middle">3</text><text x="74" y="31" font-size="15" fill="#0f172a" font-weight="700">Synthesize the overview</text><rect x="74" y="40" width="119" height="19" rx="9" fill="#ede9fe" stroke="#8b5cf6" stroke-width="1"/><text x="133.5" y="53" font-size="11" fill="#3b0764" font-weight="600" text-anchor="middle">claude-opus-4-8</text><text x="74" y="76" font-size="12.5" fill="#475569">Merge the per-module summaries</text><text x="74" y="93" font-size="12.5" fill="#475569">into one architecture doc: a</text><text x="74" y="110" font-size="12.5" fill="#475569">dependency sketch, the real e…</text></g></g><g class="topology" transform="translate(338 0)"><g class="edge"><path d="M 304 76 L 304 180" fill="none" stroke="#64748b" stroke-width="1.3"/><polygon points="304,180 300.5,173 307.5,173" fill="#64748b"/></g><g class="edge"><path d="M 304 206 L 304 310" fill="none" stroke="#64748b" stroke-width="1.3"/><polygon points="304,310 300.5,303 307.5,303" fill="#64748b"/></g><g class="agent-node"><title>List top-level modules with a one-line guess at each one&#39;s job.</title><circle cx="304" cy="63" r="13" fill="#f1f5f9" stroke="#94a3b8" stroke-width="1.25"/><text x="325" y="67" font-size="12.5" fill="#334155">List top-level modules with a one-line…</text></g><g class="agent-node"><circle cx="306" cy="195" r="13" fill="#f1f5f9" stroke="#94a3b8" stroke-width="1"/><circle cx="304" cy="193" r="13" fill="#f1f5f9" stroke="#94a3b8" stroke-width="1.25"/><text x="325" y="197" font-size="12.5" fill="#334155">read each modules.modules</text><text x="318" y="182" font-size="11" font-weight="700" fill="#e8694a">×N</text></g><g class="agent-node"><title>Write one architecture overview from these module summaries:\n${JSON.stringify(…</title><circle cx="304" cy="323" r="13" fill="#f1f5f9" stroke="#94a3b8" stroke-width="1.25"/><text x="325" y="327" font-size="12.5" fill="#334155">Write one architecture overview from th…</text></g></g></g>
</svg>
